<svg width="108" height="22" viewBox="0 0 108 22" fill="none" xmlns="http://www.w3.org/2000/svg">
<path fillRule="evenodd" clipRule="evenodd" d="M0 0.00195312L5.99609 6.80306V22.0004L0 15.1992V0.00195312Z" fill="#1976d2"/>
<path fillRule="evenodd" clipRule="evenodd" d="M0 0.00195312L5.99609 6.80306V22.0004L0 15.1992V0.00195312Z" fill="#1976d2"/>
<path fillRule="evenodd" clipRule="evenodd" d="M14.9977 7.71582H20.9921V20.1587L14.9977 13.356V7.71582Z" fill="#1976d2"/>
<path fillRule="evenodd" clipRule="evenodd" d="M1.17926 0L14.9977 0.00166489L20.9921 6.80277H7.17534L1.17926 0Z" fill="#1976d2"/>
<path fillRule="evenodd" clipRule="evenodd" d="M1.17926 0L14.9977 0.00166489L20.9921 6.80277H7.17534L1.17926 0Z" fill="#1976d2"/>
<path fillRule="evenodd" clipRule="evenodd" d="M7.37158 13.3442H13.9049L19.901 20.147H13.3677L7.37158 13.3442Z" fill="#1976d2"/>
<path d="M32.4388 16.5702C32.4388 17.0062 32.7348 17.3105 33.1588 17.3105H34.7849C34.9512 17.3105 35.1541 17.2729 35.302 17.102C35.4683 16.931 35.5049 16.7224 35.5049 16.5702V14.6896H44.2443C46.5539 14.6896 47.791 13.397 47.791 11.0223V7.67978C47.791 5.30501 46.5539 4.01247 44.2443 4.01247H33.1588C32.7348 4.01247 32.4388 4.3168 32.4388 4.75448V16.5702ZM43.7638 6.91896C44.226 6.91896 44.4289 6.99591 44.522 7.12755C44.6135 7.2233 44.7066 7.41307 44.7066 7.86956V10.8325C44.7066 11.5933 44.5021 11.7831 43.7638 11.7831H35.5049V6.91896H43.7638ZM51.8148 16.5497C51.8148 16.7019 51.8514 16.9122 52.0177 17.0832C52.184 17.2353 52.3885 17.2917 52.5365 17.2917L55.99 17.4063H64.5066C67.039 17.4063 68.4972 16.0368 68.4972 13.4347V12.8465C68.4972 11.7061 68.1647 10.6239 67.2236 10.0152C67.8704 9.42711 68.0915 8.57567 68.0915 7.68833C68.0915 5.17165 66.7979 3.95605 64.3404 3.95605H56.138L52.5365 4.01247C52.3885 4.01247 52.184 4.0518 52.0177 4.22106C51.8514 4.37322 51.8148 4.58351 51.8148 4.75448V16.5497ZM54.9741 12.8465C54.9741 11.9917 55.27 11.6497 56.1014 11.6497H64.3603C64.8591 11.6497 65.0986 11.7643 65.2466 11.9147C65.3945 12.0481 65.5043 12.3148 65.5043 12.8465V13.4347C65.5043 14.3288 65.1734 14.5374 64.3603 14.5374H56.1014C55.2883 14.5374 54.9741 14.2895 54.9741 13.4347V12.8465ZM55.2883 7.68833C55.2883 6.91554 55.4729 6.69158 56.2677 6.69158H64.2123C64.7112 6.69158 64.914 6.7839 65.0055 6.91555C65.1352 7.04891 65.21 7.25578 65.21 7.68833C65.21 8.46112 64.9689 8.66629 64.2123 8.66629H56.2677C55.7689 8.66629 55.566 8.55686 55.4729 8.46112C55.3432 8.32776 55.2883 8.1226 55.2883 7.68833ZM70.8584 4.37322C70.8035 4.46897 70.7852 4.5647 70.7852 4.69635C70.7852 4.84851 70.8583 4.96307 70.9149 5.09642L78.3225 16.8164C78.527 17.1208 78.7298 17.3105 79.0807 17.3105H80.8532C81.2057 17.3105 81.4817 17.102 81.6297 16.7976L85.3243 10.947L89.0206 5.09642C89.0755 4.96307 89.1303 4.84851 89.1486 4.69635C89.1486 4.5647 89.1303 4.46897 89.0755 4.37322C89.0206 4.26038 88.9458 4.18345 88.8543 4.12703C88.7246 4.0518 88.5949 4.01247 88.4652 4.01247H86.5631C86.1939 4.01247 86.0077 4.24158 85.8048 4.54419C85.8048 4.52539 84.3466 6.84374 82.8867 9.16039L79.9669 13.7954L74.1473 4.52538C74.0741 4.43134 73.9627 4.24157 73.7599 4.10821C73.5753 4.05179 73.4456 4.01247 73.3724 4.01247H71.4686C71.3389 4.01247 71.2109 4.0518 71.0812 4.12703C70.988 4.18345 70.9149 4.26038 70.8584 4.37322ZM92.9696 4.01247C92.5456 4.01247 92.2497 4.3168 92.2497 4.75448V16.5702V16.6267C92.3045 17.0832 92.5456 17.3105 92.9696 17.3105H94.5958C94.7621 17.3105 94.9649 17.2729 95.1129 17.102C95.2792 16.931 95.3158 16.7224 95.3158 16.5702V6.91896H103.575C104.037 6.91896 104.24 6.99591 104.331 7.12755C104.424 7.2233 104.517 7.41307 104.517 7.86956V10.111C104.517 10.8701 104.313 11.0599 103.575 11.0599H96.8871C96.8123 11.0599 96.7757 11.1556 96.8306 11.212C97.9213 12.2772 100.839 15.1632 102.964 17.2917C102.964 17.3106 102.983 17.3105 103.021 17.3105H107.214C107.269 17.3105 107.306 17.2353 107.251 17.1772C106.604 16.5121 104.887 14.8024 104.092 14.0433C104.037 13.9869 104.074 13.9099 104.147 13.9099C106.456 13.6637 107.602 12.7901 107.602 10.3196V7.67978C107.602 5.30501 106.346 4.01247 104.037 4.01247H92.9696Z" fill="#1976d2"/>
</svg>
